<?xml version="1.0" standalone="no"?>
<!DOCTYPE svg PUBLIC "-//W3C//DTD SVG 20010904//EN"
 "http://www.w3.org/TR/2001/REC-SVG-20010904/DTD/svg10.dtd">
<svg version="1.0" xmlns="http://www.w3.org/2000/svg"
 width="600.000000pt" height="600.000000pt" viewBox="0 0 600.000000 600.000000"
 preserveAspectRatio="xMidYMid meet">
<metadata>
Created by potrace 1.14, written by Peter Selinger 2001-2017
</metadata>
<g transform="translate(0.000000,600.000000) scale(0.100000,-0.100000)"
fill="#000000" stroke="none">
<path d="M4307 5826 c-49 -26 -218 -159 -321 -252 -97 -87 -227 -224 -329
-346 -135 -161 -308 -435 -398 -627 -16 -36 -36 -79 -44 -95 -29 -62 -88 -224
-125 -341 -81 -257 -127 -535 -137 -823 l-6 -183 -71 8 c-107 12 -445 8 -581
-6 -622 -64 -1208 -315 -1710 -730 -132 -109 -389 -372 -414 -424 -26 -54 -27
-103 -2 -143 15 -24 43 -42 127 -78 445 -195 932 -282 1429 -255 456 24 854
132 1275 345 80 40 159 82 176 93 l31 21 72 -145 c431 -856 1239 -1466 2207
-1665 136 -28 157 -27 202 14 l37 35 -2 78 c-2 94 -24 242 -58 400 -99 458
-324 927 -620 1294 -241 299 -539 555 -882 759 l-73 43 34 46 c96 130 230 374
319 576 72 165 146 411 191 640 45 229 61 619 36 885 -28 307 -149 788 -213
848 -44 41 -102 52 -150 28z m39 -439 c73 -284 100 -533 91 -837 -14 -458
-116 -854 -324 -1250 -58 -111 -223 -373 -243 -385 -5 -3 -41 9 -82 26 -147
63 -383 137 -540 169 l-58 11 0 107 c0 130 13 281 41 467 69 466 277 945 578
1333 129 165 465 497 496 488 5 -1 24 -59 41 -129z m-1400 -2472 c19 -6 23
-19 34 -103 21 -166 74 -395 135 -579 2 -7 -36 -36 -88 -66 -315 -185 -660
-306 -1050 -369 -124 -20 -178 -23 -422 -23 -335 1 -501 22 -790 101 -72 20
-281 91 -293 99 -20 15 209 227 398 369 356 268 769 453 1190 536 223 43 302
49 590 45 151 -2 285 -6 296 -10z m419 -85 c111 -32 323 -105 333 -115 4 -4
-43 -55 -105 -115 -118 -114 -261 -235 -269 -228 -15 15 -104 424 -104 478 0
21 -2 21 145 -20z m707 -301 c350 -206 695 -534 928 -879 217 -323 375 -707
445 -1084 13 -72 22 -132 21 -134 -8 -7 -330 93 -443 139 -628 253 -1130 684
-1455 1249 -67 116 -152 295 -147 309 2 5 38 36 80 68 112 85 244 205 340 310
46 50 90 92 97 92 7 1 68 -31 134 -70z"/>
</g>
</svg>
